<?xml version="1.0" encoding="utf-8"?>
<svg xmlns="http://www.w3.org/2000/svg" xmlns:xlink="http://www.w3.org/1999/xlink" style="margin: auto; background: none; display: block; shape-rendering: auto;" width="100px" height="100px" viewBox="0 0 100 100" preserveAspectRatio="xMidYMid">
<g transform="translate(50 50)">
<g>
<animateTransform attributeName="transform" type="rotate" values="0;45" keyTimes="0;1" dur="0.3333333333333333s" repeatCount="indefinite"></animateTransform><path d="M29.660579899927782 -4.5 L37.66057989992778 -4.5 L37.66057989992778 4.5 L29.660579899927782 4.5 A30 30 0 0 1 24.15517769650381 17.79121666582488 L24.15517769650381 17.79121666582488 L29.81203194599619 23.44807091531726 L23.44807091531726 29.81203194599619 L17.79121666582488 24.15517769650381 A30 30 0 0 1 4.499999999999999 29.660579899927782 L4.499999999999999 29.660579899927782 L4.5 37.66057989992778 L-4.499999999999995 37.66057989992778 L-4.499999999999996 29.660579899927786 A30 30 0 0 1 -17.79121666582488 24.15517769650381 L-17.79121666582488 24.15517769650381 L-23.44807091531726 29.81203194599619 L-29.812031945996186 23.448070915317263 L-24.155177696503806 17.791216665824884 A30 30 0 0 1 -29.660579899927782 4.500000000000002 L-29.660579899927782 4.500000000000002 L-37.66057989992778 4.500000000000003 L-37.66057989992778 -4.499999999999993 L-29.660579899927786 -4.499999999999994 A30 30 0 0 1 -24.15517769650381 -17.79121666582488 L-24.15517769650381 -17.79121666582488 L-29.81203194599619 -23.44807091531726 L-23.448070915317253 -29.812031945996193 L-17.791216665824873 -24.155177696503813 A30 30 0 0 1 -4.500000000000017 -29.660579899927782 L-4.500000000000017 -29.660579899927782 L-4.500000000000019 -37.66057989992778 L4.500000000000003 -37.66057989992778 L4.500000000000004 -29.660579899927782 A30 30 0 0 1 17.791216665824866 -24.15517769650382 L17.791216665824866 -24.15517769650382 L23.448070915317246 -29.812031945996203 L29.812031945996193 -23.44807091531726 L24.155177696503813 -17.791216665824876 A30 30 0 0 1 29.660579899927782 -4.500000000000018 M0 -20A20 20 0 1 0 0 20 A20 20 0 1 0 0 -20" fill="#82bbe4"></path></g></g>
<!-- [ldio] generated by https://loading.io/ --></svg>